<svg xmlns="http://www.w3.org/2000/svg" width="445" height="495" viewBox="0 0 445 495" role="img" aria-labelledby="title">
  <title id="title">Sigil mark</title>
  <g transform="translate(-9.5 4) scale(7.25)">
    <path d="M27 8L8 19V45L27 56M37 8L56 19V45L37 56" fill="none" stroke="#242932" stroke-width="4.2" stroke-linecap="square" stroke-linejoin="bevel"/>
    <path d="M29.875 4H34.125V22.375H29.875ZM29.875 37.625H34.125V57.25H29.875ZM32 20.25L41.75 30L32 39.75L22.25 30ZM32 26L28 30L32 34L36 30ZM29.45 14.1L31.55 16.9L25.55 21.4L23.45 18.6ZM34.55 47.9L32.45 45.1L38.45 40.6L40.55 43.4ZM30 13.6875V14.833333L29.45 14.1ZM34 48.3125V47.166667L34.55 47.9Z" fill="#16BDB8" fill-rule="nonzero"/>
    <circle cx="32" cy="61" r="2.2" fill="#16BDB8"/>
    <path d="M13.5 28.5L18.5 32L13.5 35.5M15.75 38.25H20.75" fill="none" stroke="#C85B4B" stroke-width="2.5" stroke-linecap="square" stroke-linejoin="bevel"/>
  </g>
</svg>
