<svg xmlns="http://www.w3.org/2000/svg" width="527" height="226" viewBox="0 0 527 226">
  <path d="M 387.25 56.75 L 385.25 59.25 L 385.25 72.25 L 388.25 74.25 L 404.25 74.25 L 406.25 76.25 L 406.25 150.25 L 403.25 154.25 L 387.25 154.25 L 385.25 157.25 L 385.25 169.25 L 387.25 171.25 L 441.25 171.25 L 444.25 169.25 L 444.25 154.75 L 426.25 154.75 L 424.25 152.25 L 424.25 59.25 L 419.25 56.75 Z M 328.25 57.25 L 264.25 57.25 L 245.25 76.25 L 245.25 152.25 L 265.25 171.25 L 324.25 171.25 L 326.25 173.25 L 326.25 197.25 L 319.25 201.25 L 319.25 203.25 L 257.25 203.25 L 255.25 205.25 L 255.25 220.75 L 327.25 220.75 L 344.25 204.25 L 344.25 73.25 Z M 153.25 56.75 L 149.75 59.25 L 149.75 74.25 L 169.75 74.25 L 169.75 150.25 L 167.25 154.25 L 151.25 154.25 L 149.25 156.25 L 149.25 168.25 L 151.25 171.25 L 205.25 171.25 L 208.25 169.25 L 208.25 154.75 L 190.25 154.75 L 188.25 152.25 L 188.25 59.25 L 186.25 56.75 Z M 16.25 57.25 L 4.25 70.25 L 2.75 75.25 L 2.75 108.25 L 19.25 122.75 L 77.25 122.75 L 85.25 130.25 L 85.25 146.25 L 77.25 154.25 L 27.25 154.25 L 20.25 148.25 L 19.25 144.25 L 4.25 144.25 L 2.75 147.25 L 2.75 157.25 L 18.25 170.75 L 87.25 170.75 L 102.75 152.25 L 102.75 122.25 L 86.25 106.25 L 27.25 106.25 L 20.25 100.25 L 20.25 81.25 L 26.25 75.25 L 29.25 76.25 L 27.25 74.25 L 78.25 74.25 L 85.25 81.25 L 86.25 85.25 L 101.25 85.25 L 102.25 82.25 L 102.25 70.25 L 87.25 57.25 L 32.25 57.25 Z M 467.25 4.25 L 465.25 7.25 L 465.25 21.25 L 484.25 21.25 L 486.25 27.25 L 486.25 152.25 L 483.25 154.25 L 467.25 154.25 L 465.25 156.25 L 465.25 169.25 L 467.25 171.25 L 522.25 171.25 L 523.75 169.25 L 523.75 154.75 L 506.25 154.75 L 503.75 152.25 L 503.75 7.25 L 502.25 4.25 Z M 407.25 4.25 L 405.25 6.25 L 405.25 22.25 L 408.25 24.25 L 422.25 24.25 L 424.75 20.25 L 424.75 6.25 L 422.25 4.25 Z M 171.25 4.75 L 168.75 12.25 L 168.75 22.25 L 172.25 24.25 L 186.25 24.25 L 188.75 20.25 L 188.75 4.75 Z M 272.25 74.25 L 319.25 74.25 L 326.25 81.25 L 326.25 151.25 L 324.25 153.75 L 273.25 153.75 L 262.25 144.25 L 262.25 84.25 Z" fill="#DCE8F5" fill-rule="evenodd"/>
</svg>
