<svg xmlns="http://www.w3.org/2000/svg" width="619" height="314" viewBox="0 0 619 314">
  <path d="M 433.25 100.75 L 431.25 103.25 L 431.25 116.25 L 434.25 118.25 L 450.25 118.25 L 452.25 120.25 L 452.25 194.25 L 449.25 198.25 L 433.25 198.25 L 431.25 201.25 L 431.25 213.25 L 433.25 215.25 L 487.25 215.25 L 490.25 213.25 L 490.25 198.75 L 472.25 198.75 L 470.25 196.25 L 470.25 103.25 L 465.25 100.75 Z M 374.25 101.25 L 310.25 101.25 L 291.25 120.25 L 291.25 196.25 L 311.25 215.25 L 370.25 215.25 L 372.25 217.25 L 372.25 241.25 L 365.25 245.25 L 365.25 247.25 L 303.25 247.25 L 301.25 249.25 L 301.25 264.75 L 373.25 264.75 L 390.25 248.25 L 390.25 117.25 Z M 199.25 100.75 L 195.75 103.25 L 195.75 118.25 L 215.75 118.25 L 215.75 194.25 L 213.25 198.25 L 197.25 198.25 L 195.25 200.25 L 195.25 212.25 L 197.25 215.25 L 251.25 215.25 L 254.25 213.25 L 254.25 198.75 L 236.25 198.75 L 234.25 196.25 L 234.25 103.25 L 232.25 100.75 Z M 62.25 101.25 L 50.25 114.25 L 48.75 119.25 L 48.75 152.25 L 65.25 166.75 L 123.25 166.75 L 131.25 174.25 L 131.25 190.25 L 123.25 198.25 L 73.25 198.25 L 66.25 192.25 L 65.25 188.25 L 50.25 188.25 L 48.75 191.25 L 48.75 201.25 L 64.25 214.75 L 133.25 214.75 L 148.75 196.25 L 148.75 166.25 L 132.25 150.25 L 73.25 150.25 L 66.25 144.25 L 66.25 125.25 L 72.25 119.25 L 75.25 120.25 L 73.25 118.25 L 124.25 118.25 L 131.25 125.25 L 132.25 129.25 L 147.25 129.25 L 148.25 126.25 L 148.25 114.25 L 133.25 101.25 L 78.25 101.25 Z M 513.25 48.25 L 511.25 51.25 L 511.25 65.25 L 530.25 65.25 L 532.25 71.25 L 532.25 196.25 L 529.25 198.25 L 513.25 198.25 L 511.25 200.25 L 511.25 213.25 L 513.25 215.25 L 568.25 215.25 L 569.75 213.25 L 569.75 198.75 L 552.25 198.75 L 549.75 196.25 L 549.75 51.25 L 548.25 48.25 Z M 453.25 48.25 L 451.25 50.25 L 451.25 66.25 L 454.25 68.25 L 468.25 68.25 L 470.75 64.25 L 470.75 50.25 L 468.25 48.25 Z M 217.25 48.75 L 214.75 56.25 L 214.75 66.25 L 218.25 68.25 L 232.25 68.25 L 234.75 64.25 L 234.75 48.75 Z M 318.25 118.25 L 365.25 118.25 L 372.25 125.25 L 372.25 195.25 L 370.25 197.75 L 319.25 197.75 L 308.25 188.25 L 308.25 128.25 Z" fill="#242932" fill-rule="evenodd"/>
</svg>
