<svg xmlns="http://www.w3.org/2000/svg" width="452" height="226" viewBox="0 0 452 226" role="img" aria-labelledby="title">
  <title id="title">Sigil wordmark</title>
  <path d="M16.25 57.25L4.25 70.25L2.75 75.25V108.25L19.25 122.75H77.25L85.25 130.25V146.25L77.25 154.25H27.25L20.25 148.25L19.25 144.25H4.25L2.75 147.25V157.25L18.25 170.75H87.25L102.75 152.25V122.25L86.25 106.25H27.25L20.25 100.25V81.25L26.25 75.25L29.25 76.25L27.25 74.25H78.25L85.25 81.25L86.25 85.25H101.25L102.25 82.25V70.25L87.25 57.25H32.25Z" fill="#242932" transform="translate(-2.75)"/>
  <path d="M153.25 56.75L149.75 59.25V74.25H169.75V150.25L167.25 154.25H151.25L149.25 156.25V168.25L151.25 171.25H205.25L208.25 169.25V154.75H190.25L188.25 152.25V59.25L186.25 56.75Z" fill="#242932" transform="translate(-29.25)"/>
  <path d="M328.25 57.25H264.25L245.25 76.25V152.25L265.25 171.25H324.25L326.25 173.25V197.25L319.25 201.25V203.25H257.25L255.25 205.25V220.75H327.25L344.25 204.25V73.25L328.25 57.25ZM272.25 74.25H319.25L326.25 81.25V151.25L324.25 153.75H273.25L262.25 144.25V84.25L272.25 74.25Z" fill="#242932" fill-rule="evenodd" transform="translate(-47.25)"/>
  <path d="M153.25 56.75L149.75 59.25V74.25H169.75V150.25L167.25 154.25H151.25L149.25 156.25V168.25L151.25 171.25H205.25L208.25 169.25V154.75H190.25L188.25 152.25V59.25L186.25 56.75Z" fill="#16BDB8" transform="translate(167.75)"/>
  <path d="M467.25 4.25L465.25 7.25V21.25H484.25L486.25 27.25V152.25L483.25 154.25H467.25L465.25 156.25V169.25L467.25 171.25H522.25L523.75 169.25V154.75H506.25L503.75 152.25V7.25L502.25 4.25Z" fill="#242932" transform="translate(-72.25)"/>
  <path d="M171.25 4.75L168.75 12.25V22.25L172.25 24.25H186.25L188.75 20.25V4.75Z" fill="#242932" transform="translate(-29.25)"/>
  <path d="M346.5 3.5L357.5 14.5L346.5 25.5L335.5 14.5ZM346.5 10L341.75 14.5L346.5 19L351.25 14.5Z" fill="#16BDB8" fill-rule="nonzero"/>
  <path d="M241.5 93.75L256.5 110.75L241.5 127.75M246 134.25H261" fill="none" stroke="#C85B4B" stroke-width="5.5" stroke-linecap="square" stroke-linejoin="bevel"/>
</svg>
