<svg xmlns="http://www.w3.org/2000/svg" width="1094" height="545" viewBox="0 0 1094 545">
  <path d="M 126.25 228.25 L 124.25 230.25 L 124.25 247.25 L 124.25 231.25 Z M 908.25 215.75 L 906.25 218.25 L 906.25 231.25 L 909.25 233.25 L 925.25 233.25 L 927.25 235.25 L 927.25 309.25 L 924.25 313.25 L 908.25 313.25 L 906.25 316.25 L 906.25 328.25 L 908.25 330.25 L 962.25 330.25 L 965.25 328.25 L 965.25 313.75 L 947.25 313.75 L 945.25 311.25 L 945.25 218.25 L 940.25 215.75 Z M 849.25 216.25 L 785.25 216.25 L 766.25 235.25 L 766.25 311.25 L 786.25 330.25 L 845.25 330.25 L 847.25 332.25 L 847.25 356.25 L 840.25 360.25 L 840.25 362.25 L 778.25 362.25 L 776.25 364.25 L 776.25 379.75 L 848.25 379.75 L 865.25 363.25 L 865.25 232.25 Z M 674.25 215.75 L 670.75 218.25 L 670.75 233.25 L 690.75 233.25 L 690.75 309.25 L 688.25 313.25 L 672.25 313.25 L 670.25 315.25 L 670.25 327.25 L 672.25 330.25 L 726.25 330.25 L 729.25 328.25 L 729.25 313.75 L 711.25 313.75 L 709.25 311.25 L 709.25 218.25 L 707.25 215.75 Z M 537.25 216.25 L 525.25 229.25 L 523.75 234.25 L 523.75 267.25 L 540.25 281.75 L 598.25 281.75 L 606.25 289.25 L 606.25 305.25 L 598.25 313.25 L 548.25 313.25 L 541.25 307.25 L 540.25 303.25 L 525.25 303.25 L 523.75 306.25 L 523.75 316.25 L 539.25 329.75 L 608.25 329.75 L 623.75 311.25 L 623.75 281.25 L 607.25 265.25 L 548.25 265.25 L 541.25 259.25 L 541.25 240.25 L 547.25 234.25 L 550.25 235.25 L 548.25 233.25 L 599.25 233.25 L 606.25 240.25 L 607.25 244.25 L 622.25 244.25 L 623.25 241.25 L 623.25 229.25 L 608.25 216.25 L 553.25 216.25 Z M 988.25 163.25 L 986.25 166.25 L 986.25 180.25 L 1005.25 180.25 L 1007.25 186.25 L 1007.25 311.25 L 1004.25 313.25 L 988.25 313.25 L 986.25 315.25 L 986.25 328.25 L 988.25 330.25 L 1043.25 330.25 L 1044.75 328.25 L 1044.75 313.75 L 1027.25 313.75 L 1024.75 311.25 L 1024.75 166.25 L 1023.25 163.25 Z M 928.25 163.25 L 926.25 165.25 L 926.25 181.25 L 929.25 183.25 L 943.25 183.25 L 945.75 179.25 L 945.75 165.25 L 943.25 163.25 Z M 692.25 163.75 L 689.75 171.25 L 689.75 181.25 L 693.25 183.25 L 707.25 183.25 L 709.75 179.25 L 709.75 163.75 Z M 299.75 77.25 L 299.75 101.25 L 424.25 175.25 L 424.25 333.25 L 300.25 406.25 L 300.25 432.25 L 445.25 347.25 L 445.25 161.25 Z M 240.25 77.25 L 92.25 162.25 L 92.25 346.25 L 239.75 432.25 L 239.75 406.25 L 113.25 333.25 L 113.25 176.25 L 240.25 101.25 Z M 793.25 233.25 L 840.25 233.25 L 847.25 240.25 L 847.25 310.25 L 845.25 312.75 L 794.25 312.75 L 783.25 303.25 L 783.25 243.25 Z" fill="#242932" fill-rule="evenodd"/>
  <path d="M 127.25 229.25 L 125.25 229.25 L 125.25 246.25 L 157.25 269.25 L 155.25 272.25 L 150.25 274.25 L 148.25 277.25 L 140.25 281.25 L 139.25 283.25 L 137.25 283.25 L 135.25 286.25 L 134.25 285.25 L 125.25 293.25 L 125.25 310.25 L 133.25 306.25 L 135.25 303.25 L 140.25 301.25 L 146.25 295.25 L 147.25 296.25 L 153.25 290.25 L 154.25 291.25 L 160.25 285.25 L 161.25 286.25 L 170.25 278.25 L 178.25 274.25 L 181.25 270.25 L 181.25 268.25 L 174.25 262.25 L 169.25 260.25 L 138.25 237.25 L 137.25 238.25 Z" fill="#174C5B" fill-rule="evenodd"/>
  <path d="M 266.25 463.25 L 259.25 468.25 L 257.25 472.25 L 257.25 478.25 L 258.25 481.25 L 263.25 486.25 L 273.25 487.25 L 280.25 482.25 L 282.25 477.25 L 281.25 471.25 L 275.25 464.25 Z M 168.25 317.25 L 168.25 327.25 L 171.25 330.25 L 173.25 329.25 L 203.25 330.25 L 211.25 328.25 L 211.25 318.25 L 210.25 317.25 L 211.25 316.25 L 209.25 315.25 L 170.25 315.25 Z M 263.25 164.25 L 260.25 167.25 L 261.25 199.25 L 211.25 249.25 L 261.25 300.25 L 261.25 421.25 L 260.25 422.25 L 261.25 424.25 L 261.25 441.25 L 260.25 442.25 L 263.25 445.25 L 271.25 447.25 L 273.25 445.25 L 276.25 445.25 L 279.25 442.25 L 279.25 375.25 L 283.25 371.25 L 285.25 371.25 L 286.25 369.25 L 291.25 367.25 L 293.25 364.25 L 295.25 364.25 L 297.25 361.25 L 298.25 362.25 L 308.25 355.25 L 314.25 349.25 L 319.25 347.25 L 321.25 344.25 L 323.25 344.25 L 322.25 341.25 L 310.25 329.25 L 309.25 331.25 L 304.25 333.25 L 302.25 336.25 L 297.25 338.25 L 295.25 341.25 L 293.25 341.25 L 292.25 343.25 L 287.25 345.25 L 285.25 348.25 L 283.25 348.25 L 280.25 351.25 L 279.25 350.25 L 279.25 298.25 L 327.25 250.25 L 327.25 248.25 L 279.25 201.25 L 278.25 199.25 L 279.25 193.25 L 279.25 167.25 L 277.25 164.25 L 276.25 165.25 Z M 276.25 57.25 L 262.25 57.25 L 260.25 59.25 L 260.25 113.25 L 261.25 114.25 L 261.25 126.25 L 260.25 128.25 L 261.25 129.25 L 216.25 161.25 L 216.25 163.25 L 228.25 174.25 L 230.25 173.25 L 231.25 174.25 L 237.25 168.25 L 238.25 169.25 L 240.25 166.25 L 241.25 167.25 L 243.25 164.25 L 244.25 165.25 L 250.25 159.25 L 251.25 160.25 L 257.25 154.25 L 258.25 155.25 L 260.25 152.25 L 261.25 153.25 L 263.25 150.25 L 264.25 151.25 L 279.25 139.25 L 278.25 138.25 L 279.25 134.25 L 278.25 133.25 L 278.25 121.25 L 279.25 120.25 L 278.25 59.25 Z M 278.25 351.25 L 279.25 350.25 L 280.25 351.25 L 279.25 352.25 Z M 269.25 218.25 L 271.25 218.25 L 301.25 249.25 L 297.25 253.25 L 296.25 256.25 L 279.25 271.25 L 270.25 282.25 L 237.25 250.25 Z M 269.25 233.25 L 253.25 250.25 L 270.25 266.25 L 286.25 249.25 Z" fill="#46E8DF" fill-rule="evenodd"/>
</svg>
