<svg xmlns="http://www.w3.org/2000/svg" width="1280" height="640" viewBox="0 0 1280 640" role="img" aria-labelledby="title description">
  <title id="title">Sigil social preview</title>
  <desc id="description">Sigil logo with the message Reviewable edits, resumable sessions on a dark terminal-inspired background.</desc>
  <defs>
    <linearGradient id="background" x1="0" y1="0" x2="1" y2="1">
      <stop offset="0" stop-color="#0A0F17"/>
      <stop offset="0.55" stop-color="#101722"/>
      <stop offset="1" stop-color="#0B111A"/>
    </linearGradient>
    <radialGradient id="cyan-halo" cx="0" cy="0" r="1" gradientUnits="userSpaceOnUse" gradientTransform="translate(264 320) rotate(90) scale(306)">
      <stop stop-color="#16BDB8" stop-opacity="0.22"/>
      <stop offset="1" stop-color="#16BDB8" stop-opacity="0"/>
    </radialGradient>
    <pattern id="grid" width="40" height="40" patternUnits="userSpaceOnUse">
      <path d="M40 0H0V40" fill="none" stroke="#EEF1F3" stroke-opacity="0.045" stroke-width="1"/>
    </pattern>
    <linearGradient id="divider" x1="0" y1="0" x2="0" y2="1">
      <stop stop-color="#5EFFF8" stop-opacity="0"/>
      <stop offset="0.5" stop-color="#5EFFF8" stop-opacity="0.5"/>
      <stop offset="1" stop-color="#5EFFF8" stop-opacity="0"/>
    </linearGradient>
  </defs>

  <rect width="1280" height="640" rx="24" fill="url(#background)"/>
  <rect width="1280" height="640" rx="24" fill="url(#grid)"/>
  <rect width="640" height="640" fill="url(#cyan-halo)"/>
  <path d="M0 24Q0 0 24 0H1256Q1280 0 1280 24" fill="none" stroke="#EEF1F3" stroke-opacity="0.12"/>
  <path d="M0 616Q0 640 24 640H1256Q1280 640 1280 616" fill="none" stroke="#16BDB8" stroke-opacity="0.32"/>

  <g transform="translate(78 94) scale(0.8)">
    <g transform="translate(-9.5 4) scale(7.25)">
      <path d="M27 8L8 19V45L27 56M37 8L56 19V45L37 56" fill="none" stroke="#EEF1F3" stroke-width="4.2" stroke-linecap="square" stroke-linejoin="bevel"/>
      <path d="M29.875 4H34.125V22.375H29.875ZM29.875 37.625H34.125V57.25H29.875ZM32 20.25L41.75 30L32 39.75L22.25 30ZM32 26L28 30L32 34L36 30ZM29.45 14.1L31.55 16.9L25.55 21.4L23.45 18.6ZM34.55 47.9L32.45 45.1L38.45 40.6L40.55 43.4ZM30 13.6875V14.833333L29.45 14.1ZM34 48.3125V47.166667L34.55 47.9Z" fill="#5EFFF8" fill-rule="nonzero"/>
      <circle cx="32" cy="61" r="2.2" fill="#5EFFF8"/>
      <path d="M13.5 28.5L18.5 32L13.5 35.5M15.75 38.25H20.75" fill="none" stroke="#FF8A78" stroke-width="2.5" stroke-linecap="square" stroke-linejoin="bevel"/>
    </g>
  </g>
  <rect x="475" y="82" width="1" height="476" fill="url(#divider)"/>

  <g transform="translate(536 82) scale(1.25)">
    <path d="M16.25 57.25L4.25 70.25L2.75 75.25V108.25L19.25 122.75H77.25L85.25 130.25V146.25L77.25 154.25H27.25L20.25 148.25L19.25 144.25H4.25L2.75 147.25V157.25L18.25 170.75H87.25L102.75 152.25V122.25L86.25 106.25H27.25L20.25 100.25V81.25L26.25 75.25L29.25 76.25L27.25 74.25H78.25L85.25 81.25L86.25 85.25H101.25L102.25 82.25V70.25L87.25 57.25H32.25Z" fill="#EEF1F3" transform="translate(-2.75)"/>
    <path d="M153.25 56.75L149.75 59.25V74.25H169.75V150.25L167.25 154.25H151.25L149.25 156.25V168.25L151.25 171.25H205.25L208.25 169.25V154.75H190.25L188.25 152.25V59.25L186.25 56.75Z" fill="#EEF1F3" transform="translate(-29.25)"/>
    <path d="M328.25 57.25H264.25L245.25 76.25V152.25L265.25 171.25H324.25L326.25 173.25V197.25L319.25 201.25V203.25H257.25L255.25 205.25V220.75H327.25L344.25 204.25V73.25L328.25 57.25ZM272.25 74.25H319.25L326.25 81.25V151.25L324.25 153.75H273.25L262.25 144.25V84.25L272.25 74.25Z" fill="#EEF1F3" fill-rule="evenodd" transform="translate(-47.25)"/>
    <path d="M153.25 56.75L149.75 59.25V74.25H169.75V150.25L167.25 154.25H151.25L149.25 156.25V168.25L151.25 171.25H205.25L208.25 169.25V154.75H190.25L188.25 152.25V59.25L186.25 56.75Z" fill="#5EFFF8" transform="translate(167.75)"/>
    <path d="M467.25 4.25L465.25 7.25V21.25H484.25L486.25 27.25V152.25L483.25 154.25H467.25L465.25 156.25V169.25L467.25 171.25H522.25L523.75 169.25V154.75H506.25L503.75 152.25V7.25L502.25 4.25Z" fill="#EEF1F3" transform="translate(-72.25)"/>
    <path d="M171.25 4.75L168.75 12.25V22.25L172.25 24.25H186.25L188.75 20.25V4.75Z" fill="#EEF1F3" transform="translate(-29.25)"/>
    <path d="M346.5 3.5L357.5 14.5L346.5 25.5L335.5 14.5ZM346.5 10L341.75 14.5L346.5 19L351.25 14.5Z" fill="#5EFFF8" fill-rule="nonzero"/>
    <path d="M241.5 93.75L256.5 110.75L241.5 127.75M246 134.25H261" fill="none" stroke="#FF8A78" stroke-width="5.5" stroke-linecap="square" stroke-linejoin="bevel"/>
  </g>
  <text x="552" y="399" fill="#EEF1F3" font-family="Inter, ui-sans-serif, -apple-system, BlinkMacSystemFont, Segoe UI, sans-serif" font-size="38" font-weight="650" letter-spacing="-0.5">
    Reviewable edits. Resumable sessions.
  </text>
  <text x="552" y="447" fill="#AAB4C0" font-family="Inter, ui-sans-serif, -apple-system, BlinkMacSystemFont, Segoe UI, sans-serif" font-size="25" font-weight="450">
    Repository work inside one terminal.
  </text>

  <g transform="translate(552 496)" font-family="SFMono-Regular, ui-monospace, Menlo, Consolas, monospace" font-size="16" font-weight="700" letter-spacing="1.1">
    <rect width="112" height="34" rx="6" fill="#16BDB8" fill-opacity="0.12" stroke="#5EFFF8" stroke-opacity="0.42"/>
    <text x="16" y="22" fill="#5EFFF8">TUI-FIRST</text>
    <rect x="126" width="74" height="34" rx="6" fill="#EEF1F3" fill-opacity="0.06" stroke="#EEF1F3" stroke-opacity="0.18"/>
    <text x="143" y="22" fill="#EEF1F3">RUST</text>
    <rect x="214" width="66" height="34" rx="6" fill="#FF8A78" fill-opacity="0.09" stroke="#FF8A78" stroke-opacity="0.38"/>
    <text x="230" y="22" fill="#FF8A78">MCP</text>
  </g>

  <text x="552" y="579" fill="#7F8A98" font-family="SFMono-Regular, ui-monospace, Menlo, Consolas, monospace" font-size="18">
    sigil.corerobin.com
  </text>
</svg>
